# xmcd
#
# Track frame offsets: 
#        150
#        17285
#        31255
#        44192
#        58042
#        71085
#        84405
#        97172
#        110827
#        124125
#        137757
#        150440
#
# Disc length: 2191 seconds
#
# Revision: 1
# Processed by: cddbd v1.5.2PL0 Copyright (c) Steve Scherf et al.
# Submitted via: ExactAudioCopy v0.95a4
#
DISCID=a4088d0c
DTITLE=B.B.King - The Fabulous B.B.King
DYEAR=1991
DGENRE=Blues
TTITLE0=Three O'Clock Blues
TTITLE1=You Know I Love You
TTITLE2=Please Love Me
TTITLE3=You Upset Me Baby
TTITLE4=Bad Luck
TTITLE5=On My Word Of Honor
TTITLE6=Everyday I Have The Blues
TTITLE7=Woke Up This Morning (My Baby's Gone)
TTITLE8=When My Heart Beats Like A Hammer
TTITLE9=Sweet Little Angel
TTITLE10=Ten Long Years
TTITLE11=Whole Lotta Love
EXTD=
EXTT0=
EXTT1=
EXTT2=
EXTT3=
EXTT4=
EXTT5=
EXTT6=
EXTT7=
EXTT8=
EXTT9=
EXTT10=
EXTT11=
PLAYORDER=
